<svg xmlns="http://www.w3.org/2000/svg" width="106" height="102" viewBox="0 0 106 102"><g transform="translate(2 1.5)"><path d="M43,99a19.688,19.688,0,0,1-6.548-1.128l-.027-.01L-.69,84.214A2,2,0,0,1-2,82.337V0a2,2,0,0,1,.856-1.64A2,2,0,0,1,.69-1.877L37.8,11.768a15.1,15.1,0,0,0,5.157.894,15.82,15.82,0,0,0,5.25-.9L85.31-1.877a2,2,0,0,1,1.835.237A2,2,0,0,1,88,0V82.337a2,2,0,0,1-1.31,1.877L49.574,97.862l-.027.01A19.688,19.688,0,0,1,43,99Zm-5.208-4.9a15.561,15.561,0,0,0,10.417,0L84,80.942V2.866L49.574,15.525l-.027.01a19.811,19.811,0,0,1-6.59,1.128,19.084,19.084,0,0,1-6.523-1.135l-.009,0L2,2.866V80.942Z" transform="translate(8 0.5)" fill="#fff"/><path d="M.5,57a2,2,0,0,1-2-2V0a2,2,0,0,1,4,0V55A2,2,0,0,1,.5,57Z" transform="translate(51 15.5)" fill="#ffe0ac"/><path d="M.5,5a2,2,0,0,1-2-2V0a2,2,0,0,1,2-2,2,2,0,0,1,2,2V3A2,2,0,0,1,.5,5Z" transform="translate(51 81.5)" fill="#ffe0ac"/><path d="M51.057,90c-.685,0-1.37-.031-2.051-.093l-.039,0L-.219,84.479A2,2,0,0,1-2,82.491V0a2,2,0,0,1,.669-1.493A2,2,0,0,1,.23-1.987l7.82.9A2,2,0,0,1,7.59,2.891L2,2.245V80.7l47.387,5.226a18.761,18.761,0,0,0,3.34,0L100,80.7V2.245l-5.59.646a2,2,0,0,1-.459-3.974l7.82-.9a2,2,0,0,1,1.56.494A2,2,0,0,1,104,0V82.491a2,2,0,0,1-1.78,1.988L53.146,89.9l-.039,0C52.427,89.969,51.742,90,51.057,90Z" transform="translate(0 10.5)" fill="#ffe0ac"/></g></svg>